<svg width="286" height="280" viewBox="0 0 286 280" fill="none" xmlns="http://www.w3.org/2000/svg">
<path fill-rule="evenodd" clip-rule="evenodd" d="M133 92.415C113.167 97.0817 79.9 120.615 105.5 177.415C110 183.415 124.6 196.615 147 201.415C156.833 201.248 179.5 192.815 191.5 160.415C189.167 149.082 183.1 126.415 177.5 126.415C175.667 120.582 170.8 107.615 166 102.415C161 98.5314 147.4 91.0943 133 92.415ZM118 154.415C112.4 136.015 129.5 121.915 129.5 121.915C144.3 111.115 160 120.415 166 126.415C174.8 136.815 169.667 153.415 166 160.415C156.8 184.015 134.833 175.915 125 168.915C125 162.115 120.333 156.415 118 154.415Z" fill="#B8603A"/>
<path d="M142 126.415C133.167 128.582 119 137.815 133 157.415C132.333 160.082 132.1 165.315 136.5 164.915C144.833 169.415 161.3 170.815 160.5 140.415C160 134.248 155.6 122.815 142 126.415Z" fill="#B8603A"/>
<path fill-rule="evenodd" clip-rule="evenodd" d="M83 95.915C75.8333 111.415 62 145.415 64 157.415C62.3333 164.082 66.1 185.815 94.5 219.415C107.167 229.748 142.2 246.115 181 228.915C192 224.082 216 200.315 224 143.915C224.833 139.582 224.5 127.415 216.5 113.415C210.167 101.248 195.1 75.215 185.5 68.415C177 63.0817 152.3 54.515 121.5 62.915C114.167 63.7483 96.2 71.515 83 95.915ZM94.5 178.915C72.9 129.88 101.167 100.817 118 92.415C142.4 80.415 163.167 89.7483 170.5 95.915C179.3 98.715 185.833 113.082 188 119.915C203.5 153.415 204.167 154.915 203.5 160.415C187.1 198.015 155.667 207.415 142 207.415C110.8 203.415 97.3333 186.748 94.5 178.915Z" fill="#B8603A"/>
<path fill-rule="evenodd" clip-rule="evenodd" d="M53 62.915C48 76.2483 37.9 106.715 37.5 121.915C32 137.582 29 160.415 32 168.915C35 177.415 30.8 190.115 64 228.915C69.5 240.415 81.9 264.715 87.5 269.915C94.5 276.415 130 269.415 133 273.415C136 277.415 194.5 281.415 195.5 277.415C196.5 273.415 270 262.915 257 149.415C257.5 126.748 253.6 77.715 234 62.915C222.667 50.915 185 25.715 125 20.915C114.833 21.915 86.2 31.715 53 62.915ZM53 172.415C50.6 139.615 66 107.748 74 95.915C103.6 41.515 167.333 51.2483 195.5 62.915C218.7 93.715 233.5 124.082 238 135.415C231.6 167.015 214.333 204.582 206.5 219.415C172.9 251.815 126.833 243.915 108 235.915C85.2 235.915 61.8333 193.582 53 172.415Z" fill="#B8603A"/>
<path d="M37.5 73.415C30.3333 78.5817 15.1 89.615 11.5 92.415C7.9 95.215 -6.10348e-05 121.415 3.53662e-10 130.915C6.10355e-05 140.415 2.4 148.615 2 149.415C1.5 150.415 3.53662e-10 164.915 3.53662e-10 168.915C3.53662e-10 172.915 20.5 236.415 37 261.415C39.1667 268.248 47.6 281.015 64 277.415H83C78.3333 273.915 68.5 264.715 66.5 255.915C64.5 251.748 59.6 241.915 56 235.915C51.1667 229.248 39.6 213.015 32 201.415C28.5 195.248 21.6 182.715 22 181.915C21 179.415 18.9 173.315 18.5 168.915C17.3333 163.915 15.7 151.915 18.5 143.915L25 126.415L37.5 73.415Z" fill="#B8603A"/>
<path d="M1.5 207.415V255.915C3.66667 264.915 12.8 281.615 32 276.415L1.5 207.415Z" fill="#B8603A"/>
<path d="M257 78.415C263 114.248 273.2 190.215 266 207.415C257 228.915 260 251.415 213 276.415L238 277.415C252.5 267.082 282.4 243.715 286 232.915V109.915C285.605 106.082 279.252 94.415 257 78.415Z" fill="#B8603A"/>
<path d="M286 249.415L254 276.415C259.333 277.082 271.3 276.715 276.5 269.915C283 261.415 286 265.915 286 249.415Z" fill="#B8603A"/>
<path d="M112.5 16.415C126 14.2483 161.5 14.015 195.5 30.415L156.5 1.91503C150.667 -1.25166 133.7 -2.78505 112.5 16.415Z" fill="#B8603A"/>
</svg>
