<svg width="524" height="115" viewBox="0 0 524 115" fill="none" xmlns="http://www.w3.org/2000/svg">
<path fill-rule="evenodd" clip-rule="evenodd" d="M50.1707 41.6452C42.6891 43.4069 30.1401 52.2911 39.797 73.7338C41.4945 75.9989 47.002 80.9821 55.4518 82.7941C59.1611 82.7312 67.7115 79.5475 72.2382 67.3161C71.358 63.0376 69.0695 54.4806 66.9571 54.4806C66.2655 52.2785 64.4297 47.3834 62.619 45.4203C60.7329 43.9542 55.6027 41.1466 50.1707 41.6452ZM44.5123 65.051C42.3999 58.1048 48.8504 52.7818 48.8504 52.7818C54.4333 48.7047 60.3557 52.2156 62.619 54.4806C65.9386 58.4068 64.0022 64.6735 62.619 67.3161C59.1486 76.2254 50.8622 73.1675 47.1529 70.5249C47.1529 67.9578 45.3925 65.806 44.5123 65.051Z" fill="#FAFAFA"/>
<path d="M53.5657 54.4806C50.2335 55.2986 44.8895 58.7843 50.1707 66.1835C49.9192 67.1902 49.8312 69.1659 51.4909 69.0149C54.6345 70.7137 60.8461 71.2422 60.5443 59.7658C60.3557 57.4378 58.6959 53.1216 53.5657 54.4806Z" fill="#FAFAFA"/>
<path fill-rule="evenodd" clip-rule="evenodd" d="M31.3095 42.9665C28.6061 48.8179 23.3878 61.6534 24.1423 66.1835C23.5136 68.7003 24.9344 76.9049 35.6476 89.5893C40.4257 93.4903 53.6411 99.6689 68.2774 93.1757C72.4268 91.3511 81.4802 82.3788 84.498 61.0871C84.8123 59.4512 84.6866 54.8581 81.6688 49.573C79.2797 44.9799 73.5962 35.152 69.9749 32.5849C66.7685 30.5715 57.4511 27.3374 45.8326 30.5086C43.0663 30.8231 36.2889 33.7552 31.3095 42.9665ZM35.6476 74.3001C27.4996 55.7886 38.1624 44.817 44.5123 41.6452C53.7166 37.115 61.5502 40.6385 64.3165 42.9665C67.6361 44.0235 70.1006 49.4471 70.9179 52.0268C76.7649 64.6735 77.0164 65.2398 76.7649 67.3161C70.5784 81.5106 58.7211 85.0592 53.5657 85.0592C41.7963 83.5491 36.7164 77.2573 35.6476 74.3001Z" fill="#FAFAFA"/>
<path fill-rule="evenodd" clip-rule="evenodd" d="M19.9928 30.5086C18.1067 35.5421 14.2968 47.0436 14.1459 52.7818C12.0711 58.6962 10.9395 67.3161 12.0711 70.5249C13.2028 73.7338 11.6185 78.5282 24.1423 93.1757C26.217 97.5171 30.8946 106.691 33.007 108.654C35.6476 111.108 49.039 108.465 50.1707 109.975C51.3023 111.485 73.3699 112.995 73.7471 111.485C74.1243 109.975 101.85 106.011 96.9463 63.1634C97.1349 54.6065 95.6638 36.0957 88.2702 30.5086C83.995 25.9784 69.7863 16.4651 47.1529 14.653C43.3178 15.0305 32.5166 18.7301 19.9928 30.5086ZM19.9928 71.8462C19.0875 59.4638 24.8967 47.4337 27.9145 42.9665C39.0803 22.4298 63.122 26.1042 73.7471 30.5086C82.4987 42.136 88.0816 53.5998 89.7791 57.8783C87.3649 69.8077 80.8515 83.9896 77.8966 89.5893C65.2219 101.821 47.8445 98.8384 40.7401 95.8183C32.1394 95.8183 23.325 79.8369 19.9928 71.8462Z" fill="#FAFAFA"/>
<path d="M14.1459 34.4724C11.4424 36.4229 5.69607 40.5882 4.33807 41.6452C2.98006 42.7022 -2.30237e-05 52.5931 1.33409e-10 56.1794C2.3024e-05 59.7658 0.905335 62.8614 0.754446 63.1634C0.565835 63.5409 1.33409e-10 69.0149 1.33409e-10 70.5249C1.33409e-10 72.035 7.73307 96.0071 13.9573 105.445C14.7746 108.025 17.9558 112.844 24.1423 111.485H31.3095C29.5491 110.164 25.8398 106.691 25.0853 103.369C24.3309 101.796 22.4825 98.0834 21.1245 95.8183C19.3012 93.3016 14.938 87.1733 12.0711 82.7941C10.7509 80.4661 8.14802 75.7346 8.29891 75.4326C7.92168 74.4888 7.12952 72.186 6.97863 70.5249C6.53853 68.6374 5.9224 64.1072 6.97863 61.0871L9.43058 54.4806L14.1459 34.4724Z" fill="#FAFAFA"/>
<path d="M0.565835 85.0592V103.369C1.38315 106.766 4.82845 113.071 12.0711 111.108L0.565835 85.0592Z" fill="#FAFAFA"/>
<path d="M96.9463 36.36C99.2097 49.8876 103.057 78.566 100.341 85.0592C96.9463 93.1757 98.078 101.67 80.3485 111.108L89.7791 111.485C95.2488 107.584 106.528 98.7629 107.886 94.6858V48.2517C107.737 46.8045 105.34 42.4002 96.9463 36.36Z" fill="#FAFAFA"/>
<path d="M107.886 100.915L95.8147 111.108C97.8265 111.359 102.341 111.221 104.302 108.654C106.754 105.445 107.886 107.144 107.886 100.915Z" fill="#FAFAFA"/>
<path d="M42.4376 12.9542C47.5301 12.1363 60.9215 12.0482 73.7471 18.2394L59.0354 7.48027C56.8349 6.2848 50.4347 5.70593 42.4376 12.9542Z" fill="#FAFAFA"/>
<path d="M154.839 112.111C152.712 112.516 150.154 112.718 147.165 112.718C144.329 112.718 141.771 112.516 139.492 112.111V1.33779L140.48 0.350098H146.406C149.698 0.350098 151.927 1.16051 153.092 2.78133C154.256 4.3515 154.839 6.88403 154.839 10.3789V45.7837C158.131 42.8966 161.829 40.516 165.931 38.642C170.085 36.7679 174.415 35.8309 178.923 35.8309C183.634 35.8309 187.458 36.9452 190.396 39.1738C193.384 41.3518 195.562 44.3402 196.93 48.139C198.348 51.8871 199.057 56.0911 199.057 60.751V96.0798C199.057 98.7136 199.234 101.221 199.589 103.601C199.943 105.931 200.602 107.983 201.564 109.755C200.399 110.718 198.93 111.503 197.158 112.111C195.435 112.769 193.612 113.098 191.687 113.098C188.648 113.098 186.496 112.263 185.229 110.591C184.014 108.92 183.406 106.438 183.406 103.146V64.5498C183.406 59.4847 182.747 55.8125 181.431 53.5332C180.114 51.2033 177.606 50.0384 173.909 50.0384C170.921 50.0384 167.679 50.8741 164.184 52.5456C160.689 54.1664 157.574 56.4457 154.839 59.3834V112.111Z" fill="#FAFAFA"/>
<path d="M221.462 53.1534C221.462 50.5195 221.284 48.0376 220.93 45.7077C220.575 43.3271 219.917 41.2505 218.954 39.4777C220.119 38.4647 221.588 37.6543 223.361 37.0465C225.134 36.388 226.957 36.0588 228.831 36.0588C231.921 36.0588 234.074 36.9198 235.289 38.642C236.555 40.3134 237.189 42.7953 237.189 46.0876V84.7594C237.189 89.8244 237.822 93.5219 239.088 95.8518C240.405 98.1818 242.912 99.3467 246.61 99.3467C249.598 99.3467 252.84 98.511 256.334 96.8395C259.829 95.1681 262.944 92.8634 265.68 89.9257V37.1224C267.807 36.7172 270.39 36.5146 273.429 36.5146C276.519 36.5146 279.153 36.7172 281.331 37.1224V90.8374C281.331 93.7752 281.634 96.5609 282.242 99.1948C282.85 101.778 283.964 103.804 285.585 105.273C285.18 106.691 284.42 108.185 283.306 109.755C282.192 111.275 281.001 112.44 279.735 113.25C276.392 112.592 273.682 111.275 271.606 109.3C269.58 107.324 268.06 104.944 267.047 102.158C263.755 105.399 259.905 108.109 255.499 110.287C251.092 112.415 246.458 113.478 241.595 113.478C236.885 113.478 233.035 112.389 230.047 110.211C227.109 107.983 224.931 104.994 223.513 101.246C222.145 97.4473 221.462 93.218 221.462 88.5581V53.1534Z" fill="#FAFAFA"/>
<path d="M359.871 105.501C356.224 108.084 351.893 110.161 346.879 111.731C341.864 113.301 336.723 114.086 331.456 114.086C325.428 114.086 320.389 113.022 316.336 110.895C312.284 108.717 309.068 105.805 306.688 102.158C304.307 98.4603 302.61 94.2563 301.597 89.5458C300.584 84.7847 300.078 79.8462 300.078 74.7305C300.078 67.1836 301.243 60.4217 303.573 54.445C305.953 48.4682 309.473 43.7577 314.133 40.3134C318.844 36.8692 324.719 35.1471 331.76 35.1471C338.344 35.1471 343.865 36.5906 348.322 39.4777C352.83 42.3648 356.224 46.2649 358.503 51.178C360.782 56.0405 361.922 61.4854 361.922 67.5128C361.922 69.944 361.821 72.046 361.618 73.8188C361.466 75.5409 361.188 77.4403 360.782 79.517H316.336C316.64 85.8483 318.033 91.0654 320.515 95.1681C322.997 99.2708 327.429 101.322 333.811 101.322C337.61 101.322 341.282 100.765 344.827 99.6506C348.373 98.5363 351.767 97.1688 355.008 95.5479C356.274 96.7635 357.338 98.3337 358.199 100.258C359.111 102.183 359.668 103.931 359.871 105.501ZM331.76 46.6954C326.897 46.6954 323.174 48.5948 320.591 52.3936C318.059 56.1924 316.64 61.4601 316.336 68.1966H346.879V66.2212C346.879 60.9029 345.714 56.319 343.384 52.4696C341.054 48.6201 337.179 46.6954 331.76 46.6954Z" fill="#FAFAFA"/>
<path d="M408.112 100.334C408.973 102.664 409.403 105.298 409.403 108.236C409.403 108.844 409.378 109.452 409.327 110.059C409.277 110.616 409.201 111.148 409.1 111.655C407.327 111.908 405.225 112.161 402.793 112.415C400.413 112.668 398.184 112.794 396.108 112.794C386.129 112.794 381.14 107.577 381.14 97.1434V1.33779L382.128 0.350098H388.054C391.346 0.350098 393.575 1.16051 394.74 2.78133C395.905 4.3515 396.488 6.88403 396.488 10.3789V93.6485C396.488 98.1058 398.488 100.334 402.49 100.334H408.112Z" fill="#FAFAFA"/>
<path d="M451.145 100.334C452.006 102.664 452.437 105.298 452.437 108.236C452.437 108.844 452.411 109.452 452.361 110.059C452.31 110.616 452.234 111.148 452.133 111.655C450.36 111.908 448.258 112.161 445.827 112.415C443.446 112.668 441.218 112.794 439.141 112.794C429.163 112.794 424.174 107.577 424.174 97.1434V1.33779L425.161 0.350098H431.087C434.38 0.350098 436.608 1.16051 437.773 2.78133C438.938 4.3515 439.521 6.88403 439.521 10.3789V93.6485C439.521 98.1058 441.521 100.334 445.523 100.334H451.145Z" fill="#FAFAFA"/>
<path d="M460.56 91.6732C460.56 85.899 461.826 81.1632 464.359 77.4657C466.942 73.7682 470.412 71.033 474.768 69.2603C479.174 67.4368 484.113 66.5251 489.583 66.5251C491.71 66.5251 494.04 66.6011 496.573 66.7531C499.156 66.8544 501.714 67.0823 504.246 67.4368V61.5867C504.246 56.8255 503.157 53.4066 500.979 51.3299C498.801 49.2533 495.762 48.2149 491.862 48.2149C488.013 48.2149 484.037 48.7974 479.934 49.9624C475.882 51.0767 471.881 52.4189 467.93 53.9891C466.664 52.7228 465.6 51.0007 464.739 48.8227C463.878 46.5941 463.397 44.4668 463.295 42.4408C467.601 40.6173 472.64 38.9965 478.414 37.5783C484.239 36.1601 489.735 35.451 494.901 35.451C502.347 35.451 508.349 37.5277 512.908 41.681C517.466 45.8344 519.745 52.267 519.745 60.9789V92.129C519.745 94.9655 519.999 97.4727 520.505 99.6506C521.062 101.778 522.227 103.601 524 105.121C523.544 106.539 522.759 108.059 521.645 109.679C520.53 111.25 519.34 112.44 518.074 113.25C514.934 112.643 512.376 111.478 510.4 109.755C508.476 108.033 507.007 106.007 505.994 103.677C503.259 106.311 499.966 108.717 496.117 110.895C492.267 113.022 487.861 114.086 482.897 114.086C477.883 114.086 473.704 112.972 470.361 110.743C467.069 108.514 464.612 105.678 462.991 102.234C461.371 98.7896 460.56 95.2694 460.56 91.6732ZM476.135 90.6095C476.135 93.6992 477.022 96.333 478.794 98.511C480.567 100.638 483.1 101.702 486.392 101.702C489.228 101.702 492.242 100.917 495.433 99.3467C498.624 97.7766 501.562 95.472 504.246 92.4329V78.0735C501.967 77.8202 499.637 77.6429 497.256 77.5416C494.927 77.4403 492.698 77.3897 490.571 77.3897C485.961 77.3897 482.391 78.5546 479.858 80.8846C477.376 83.2145 476.135 86.4561 476.135 90.6095Z" fill="#FAFAFA"/>
<path d="M154.839 112.111C152.712 112.516 150.154 112.718 147.165 112.718C144.329 112.718 141.771 112.516 139.492 112.111V1.33779L140.48 0.350098H146.406C149.698 0.350098 151.927 1.16051 153.092 2.78133C154.256 4.3515 154.839 6.88403 154.839 10.3789V45.7837C158.131 42.8966 161.829 40.516 165.931 38.642C170.085 36.7679 174.415 35.8309 178.923 35.8309C183.634 35.8309 187.458 36.9452 190.396 39.1738C193.384 41.3518 195.562 44.3402 196.93 48.139C198.348 51.8871 199.057 56.0911 199.057 60.751V96.0798C199.057 98.7136 199.234 101.221 199.589 103.601C199.943 105.931 200.602 107.983 201.564 109.755C200.399 110.718 198.93 111.503 197.158 112.111C195.435 112.769 193.612 113.098 191.687 113.098C188.648 113.098 186.496 112.263 185.229 110.591C184.014 108.92 183.406 106.438 183.406 103.146V64.5498C183.406 59.4847 182.747 55.8125 181.431 53.5332C180.114 51.2033 177.606 50.0384 173.909 50.0384C170.921 50.0384 167.679 50.8741 164.184 52.5456C160.689 54.1664 157.574 56.4457 154.839 59.3834V112.111Z" stroke="black"/>
<path d="M221.462 53.1534C221.462 50.5195 221.284 48.0376 220.93 45.7077C220.575 43.3271 219.917 41.2505 218.954 39.4777C220.119 38.4647 221.588 37.6543 223.361 37.0465C225.134 36.388 226.957 36.0588 228.831 36.0588C231.921 36.0588 234.074 36.9198 235.289 38.642C236.555 40.3134 237.189 42.7953 237.189 46.0876V84.7594C237.189 89.8244 237.822 93.5219 239.088 95.8518C240.405 98.1818 242.912 99.3467 246.61 99.3467C249.598 99.3467 252.84 98.511 256.334 96.8395C259.829 95.1681 262.944 92.8634 265.68 89.9257V37.1224C267.807 36.7172 270.39 36.5146 273.429 36.5146C276.519 36.5146 279.153 36.7172 281.331 37.1224V90.8374C281.331 93.7752 281.634 96.5609 282.242 99.1948C282.85 101.778 283.964 103.804 285.585 105.273C285.18 106.691 284.42 108.185 283.306 109.755C282.192 111.275 281.001 112.44 279.735 113.25C276.392 112.592 273.682 111.275 271.606 109.3C269.58 107.324 268.06 104.944 267.047 102.158C263.755 105.399 259.905 108.109 255.499 110.287C251.092 112.415 246.458 113.478 241.595 113.478C236.885 113.478 233.035 112.389 230.047 110.211C227.109 107.983 224.931 104.994 223.513 101.246C222.145 97.4473 221.462 93.218 221.462 88.5581V53.1534Z" stroke="black"/>
<path d="M359.871 105.501C356.224 108.084 351.893 110.161 346.879 111.731C341.864 113.301 336.723 114.086 331.456 114.086C325.428 114.086 320.389 113.022 316.336 110.895C312.284 108.717 309.068 105.805 306.688 102.158C304.307 98.4603 302.61 94.2563 301.597 89.5458C300.584 84.7847 300.078 79.8462 300.078 74.7305C300.078 67.1836 301.243 60.4217 303.573 54.445C305.953 48.4682 309.473 43.7577 314.133 40.3134C318.844 36.8692 324.719 35.1471 331.76 35.1471C338.344 35.1471 343.865 36.5906 348.322 39.4777C352.83 42.3648 356.224 46.2649 358.503 51.178C360.782 56.0405 361.922 61.4854 361.922 67.5128C361.922 69.944 361.821 72.046 361.618 73.8188C361.466 75.5409 361.188 77.4403 360.782 79.517H316.336C316.64 85.8483 318.033 91.0654 320.515 95.1681C322.997 99.2708 327.429 101.322 333.811 101.322C337.61 101.322 341.282 100.765 344.827 99.6506C348.373 98.5363 351.767 97.1688 355.008 95.5479C356.274 96.7635 357.338 98.3337 358.199 100.258C359.111 102.183 359.668 103.931 359.871 105.501ZM331.76 46.6954C326.897 46.6954 323.174 48.5948 320.591 52.3936C318.059 56.1924 316.64 61.4601 316.336 68.1966H346.879V66.2212C346.879 60.9029 345.714 56.319 343.384 52.4696C341.054 48.6201 337.179 46.6954 331.76 46.6954Z" stroke="black"/>
<path d="M408.112 100.334C408.973 102.664 409.403 105.298 409.403 108.236C409.403 108.844 409.378 109.452 409.327 110.059C409.277 110.616 409.201 111.148 409.1 111.655C407.327 111.908 405.225 112.161 402.793 112.415C400.413 112.668 398.184 112.794 396.108 112.794C386.129 112.794 381.14 107.577 381.14 97.1434V1.33779L382.128 0.350098H388.054C391.346 0.350098 393.575 1.16051 394.74 2.78133C395.905 4.3515 396.488 6.88403 396.488 10.3789V93.6485C396.488 98.1058 398.488 100.334 402.49 100.334H408.112Z" stroke="black"/>
<path d="M451.145 100.334C452.006 102.664 452.437 105.298 452.437 108.236C452.437 108.844 452.411 109.452 452.361 110.059C452.31 110.616 452.234 111.148 452.133 111.655C450.36 111.908 448.258 112.161 445.827 112.415C443.446 112.668 441.218 112.794 439.141 112.794C429.163 112.794 424.174 107.577 424.174 97.1434V1.33779L425.161 0.350098H431.087C434.38 0.350098 436.608 1.16051 437.773 2.78133C438.938 4.3515 439.521 6.88403 439.521 10.3789V93.6485C439.521 98.1058 441.521 100.334 445.523 100.334H451.145Z" stroke="black"/>
<path d="M460.56 91.6732C460.56 85.899 461.826 81.1632 464.359 77.4657C466.942 73.7682 470.412 71.033 474.768 69.2603C479.174 67.4368 484.113 66.5251 489.583 66.5251C491.71 66.5251 494.04 66.6011 496.573 66.7531C499.156 66.8544 501.714 67.0823 504.246 67.4368V61.5867C504.246 56.8255 503.157 53.4066 500.979 51.3299C498.801 49.2533 495.762 48.2149 491.862 48.2149C488.013 48.2149 484.037 48.7974 479.934 49.9624C475.882 51.0767 471.881 52.4189 467.93 53.9891C466.664 52.7228 465.6 51.0007 464.739 48.8227C463.878 46.5941 463.397 44.4668 463.295 42.4408C467.601 40.6173 472.64 38.9965 478.414 37.5783C484.239 36.1601 489.735 35.451 494.901 35.451C502.347 35.451 508.349 37.5277 512.908 41.681C517.466 45.8344 519.745 52.267 519.745 60.9789V92.129C519.745 94.9655 519.999 97.4727 520.505 99.6506C521.062 101.778 522.227 103.601 524 105.121C523.544 106.539 522.759 108.059 521.645 109.679C520.53 111.25 519.34 112.44 518.074 113.25C514.934 112.643 512.376 111.478 510.4 109.755C508.476 108.033 507.007 106.007 505.994 103.677C503.259 106.311 499.966 108.717 496.117 110.895C492.267 113.022 487.861 114.086 482.897 114.086C477.883 114.086 473.704 112.972 470.361 110.743C467.069 108.514 464.612 105.678 462.991 102.234C461.371 98.7896 460.56 95.2694 460.56 91.6732ZM476.135 90.6095C476.135 93.6992 477.022 96.333 478.794 98.511C480.567 100.638 483.1 101.702 486.392 101.702C489.228 101.702 492.242 100.917 495.433 99.3467C498.624 97.7766 501.562 95.472 504.246 92.4329V78.0735C501.967 77.8202 499.637 77.6429 497.256 77.5416C494.927 77.4403 492.698 77.3897 490.571 77.3897C485.961 77.3897 482.391 78.5546 479.858 80.8846C477.376 83.2145 476.135 86.4561 476.135 90.6095Z" stroke="black"/>
</svg>
